<?xml version="1.0" encoding="UTF-8"?>
<svg version="1.1" xmlns="http://www.w3.org/2000/svg" width="214" height="120">
<path d="M0 0 C70.62 0 141.24 0 214 0 C214 39.6 214 79.2 214 120 C143.38 120 72.76 120 0 120 C0 80.4 0 40.8 0 0 Z " fill="#FCFCFC" transform="translate(0,0)"/>
<path d="M0 0 C1.00998047 0.00322266 2.01996094 0.00644531 3.06054688 0.00976562 C4.05892578 -0.00634766 5.05730469 -0.02246094 6.0859375 -0.0390625 C12.90505689 -0.04360555 16.51708604 0.73892429 21.56054688 5.50976562 C23.74636573 9.15279704 23.9257381 12.22384727 23.24804688 16.32226562 C21.96421413 19.44014514 20.393885 22.08668096 18.62304688 24.94726562 C15.94601391 29.57123165 16.0332697 34.26979829 15.81054688 39.50976562 C15.50770387 45.65754396 14.87421895 51.35963469 13.24804688 57.32226562 C8.95804688 57.32226562 4.66804688 57.32226562 0.24804688 57.32226562 C0.09165562 52.25909879 0.62038616 47.81828125 1.74804688 42.88476562 C2.02648437 41.64855469 2.30492187 40.41234375 2.59179688 39.13867188 C2.80835938 38.20925781 3.02492187 37.27984375 3.24804688 36.32226562 C-0.21695313 35.82726562 -0.21695313 35.82726562 -3.75195312 35.32226562 C-6.75938685 42.48282212 -8.21542116 49.71277398 -9.75195312 57.32226562 C-14.37195313 57.32226562 -18.99195313 57.32226562 -23.75195312 57.32226562 C-23.27526776 55.17718147 -22.79753004 53.03232569 -22.31445312 50.88867188 C-21.9609415 49.27577509 -21.62493803 47.65883859 -21.31445312 46.03710938 C-19.96533741 39.20721105 -18.145825 32.18846433 -12.93945312 27.25976562 C-9.09528176 24.92311244 -7.18094563 24.68955241 -2.75195312 25.32226562 C0.68554688 26.82226562 0.68554688 26.82226562 3.24804688 28.32226562 C3.49554688 27.74476562 3.74304688 27.16726562 3.99804688 26.57226562 C5.24804688 24.32226562 5.24804688 24.32226562 9.24804688 20.32226562 C6.60804688 17.68226562 3.96804687 15.04226562 1.24804688 12.32226562 C-3.28513781 13.71709168 -7.50883172 15.51849817 -11.79882812 17.51757812 C-13.75195312 18.32226562 -13.75195312 18.32226562 -15.75195312 18.32226562 C-14.36317959 14.96606291 -12.83517347 13.24927834 -9.75195312 11.32226562 C-9.09195313 11.32226562 -8.43195313 11.32226562 -7.75195312 11.32226562 C-8.08195313 10.76539063 -8.41195312 10.20851563 -8.75195312 9.63476562 C-9.90444317 6.96963239 -10.05469718 5.19833413 -9.75195312 2.32226562 C-6.77992332 -0.64976418 -4.06537058 0.02991243 0 0 Z " fill="#090909" transform="translate(164.751953125,35.677734375)"/>
<path d="M0 0 C70.62 0 141.24 0 214 0 C214 39.6 214 79.2 214 120 C143.38 120 72.76 120 0 120 C0 80.4 0 40.8 0 0 Z M2 2 C2 40.28 2 78.56 2 118 C71.3 118 140.6 118 212 118 C212 79.72 212 41.44 212 2 C142.7 2 73.4 2 2 2 Z " fill="#BFBFBF" transform="translate(0,0)"/>
<path d="M0 0 C0.1346906 6.94966093 -0.24284996 13.71856383 -1 20.625 C-1.09539062 21.53378906 -1.19078125 22.44257812 -1.2890625 23.37890625 C-1.52143768 25.58647043 -1.75846489 27.79342261 -2 30 C-1.01 30 -0.02 30 1 30 C0.6184203 36.2324684 -1.12275392 41.77588529 -3.18432617 47.63110352 C-4.40705334 51.11820733 -5.26979676 54.34898378 -6 58 C-9.63 58 -13.26 58 -17 58 C-17.103125 56.906875 -17.20625 55.81375 -17.3125 54.6875 C-17.73151 51.14755212 -17.73151 51.14755212 -19.25 49.0625 C-21.69141915 47.5802098 -23.18335291 47.62614639 -26 48 C-27.83494604 49.91958356 -27.83494604 49.91958356 -29.1875 52.4375 C-31.8487208 56.9243604 -31.8487208 56.9243604 -34 58 C-35.54023996 58.06950541 -37.08334988 58.08452357 -38.625 58.0625 C-39.85089844 58.04896484 -39.85089844 58.04896484 -41.1015625 58.03515625 C-41.72804688 58.02355469 -42.35453125 58.01195312 -43 58 C-42.11863138 50.58434682 -40.26226183 45.39975561 -35 40 C-29.076571 35.40632037 -23.58484574 33.79975549 -16.3046875 32.66015625 C-13.64823913 31.89924138 -12.69163827 31.15708904 -11 29 C-9.82425289 26.90010348 -9.82425289 26.90010348 -9 25 C-15.13503034 24.77780574 -20.08515231 25.18004687 -26 27 C-29.4375 27.125 -29.4375 27.125 -32 27 C-28.33502361 22.86212343 -23.87965924 20.17520758 -19.25 17.25 C-18.45722656 16.74339844 -17.66445312 16.23679687 -16.84765625 15.71484375 C-14.90128954 14.47198308 -12.95206294 13.23388714 -11 12 C-13.64 11.67 -16.28 11.34 -19 11 C-19.66734728 7.21836544 -18.9647808 5.94666807 -16.8125 2.6875 C-12.20555208 -1.67404149 -5.8966159 -0.47242917 0 0 Z " fill="#080808" transform="translate(140,35)"/>
<path d="M0 0 C3.28636404 1.43778427 5.70241762 3.24290115 8 6 C9.30765478 9.92296433 9.1971417 12.86002433 9 17 C7 19 7 19 4.6171875 19.1953125 C3.71226563 19.17210938 2.80734375 19.14890625 1.875 19.125 C0.96492188 19.10695313 0.05484375 19.08890625 -0.8828125 19.0703125 C-1.58148438 19.04710938 -2.28015625 19.02390625 -3 19 C-3.391875 18.030625 -3.78375 17.06125 -4.1875 16.0625 C-5.6893666 12.86349814 -5.6893666 12.86349814 -8.4375 11.875 C-11.12064814 11.77710958 -11.12064814 11.77710958 -13.3125 13.625 C-15.29117587 16.40980308 -15.14897324 17.67844852 -15 21 C-14.35933594 21.31453125 -13.71867187 21.6290625 -13.05859375 21.953125 C-11.263718 22.84120063 -9.47354378 23.73882439 -7.6875 24.64453125 C-6.07458922 25.45801968 -4.4520786 26.25341365 -2.8125 27.01171875 C-0.9375 27.9375 -0.9375 27.9375 2 30 C2.9375 33.25 2.9375 33.25 3 36 C-1.26311718 40.12989477 -4.28758534 40.61271765 -10 41 C-9.01 39.68 -8.02 38.36 -7 37 C-8.19496094 36.85304688 -8.19496094 36.85304688 -9.4140625 36.703125 C-20.51938727 35.13595022 -20.51938727 35.13595022 -25 31 C-27.60413604 27.18060048 -28.61948328 23.73869675 -28.40625 19.07421875 C-26.95218735 11.65011043 -20.8430309 6.29805454 -15 2 C-10.31096613 -0.89221146 -5.34195092 -0.52387632 0 0 Z " fill="#0B0B0B" transform="translate(65,35)"/>
<path d="M0 0 C0.72822464 0.00565979 1.45644928 0.01131958 2.20674133 0.01715088 C4.53042623 0.03952471 6.85256332 0.08971831 9.17578125 0.140625 C10.75193084 0.16068891 12.32810462 0.17893988 13.90429688 0.1953125 C17.76622049 0.23939217 21.62698855 0.30842275 25.48828125 0.390625 C24.69140625 8.0859375 24.69140625 8.0859375 22.86328125 10.828125 C19.78131926 12.85573157 17.12803323 13.11064408 13.48828125 13.390625 C13.25044922 14.2259375 13.25044922 14.2259375 13.0078125 15.078125 C10.74897593 22.46614295 7.58729561 30.53246502 0.48828125 34.390625 C-3.17411884 34.99670818 -6.80408232 35.26076033 -10.51171875 35.390625 C-7.07809973 31.75502839 -3.71435805 29.02949154 0.48828125 26.390625 C-0.01316406 25.83890625 -0.51460937 25.2871875 -1.03125 24.71875 C-2.87306457 21.82238724 -2.68384141 20.48892701 -2.19921875 17.140625 C-2.07933594 16.24859375 -1.95945312 15.3565625 -1.8359375 14.4375 C-1.72894531 13.76203125 -1.62195313 13.0865625 -1.51171875 12.390625 C-4.48171875 12.060625 -7.45171875 11.730625 -10.51171875 11.390625 C-10.8715468 5.15360545 -10.8715468 5.15360545 -9.46948242 2.18066406 C-6.57751024 -0.46354844 -3.71554774 -0.1085976 0 0 Z " fill="#0F0F0F" transform="translate(89.51171875,34.609375)"/>
<path d="M0 0 C0.90105469 0.01804687 1.80210938 0.03609375 2.73046875 0.0546875 C3.41753906 0.07789062 4.10460937 0.10109375 4.8125 0.125 C4.379375 1.20007813 4.379375 1.20007813 3.9375 2.296875 C3.21463469 4.11407808 2.50511836 5.93667965 1.8125 7.765625 C1.4825 8.62671875 1.1525 9.4878125 0.8125 10.375 C0.4825 11.24640625 0.1525 12.1178125 -0.1875 13.015625 C-1.1875 15.125 -1.1875 15.125 -3.1875 16.125 C-4.72773996 16.19450541 -6.27084988 16.20952357 -7.8125 16.1875 C-9.03839844 16.17396484 -9.03839844 16.17396484 -10.2890625 16.16015625 C-10.91554688 16.14855469 -11.54203125 16.13695313 -12.1875 16.125 C-12.60764232 10.03293639 -12.25465472 7.00558567 -8.1875 2.125 C-4.87379 -0.08414 -3.8428979 -0.09981553 0 0 Z " fill="#0A0A0A" transform="translate(90.1875,76.875)"/>
<path d="M0 0 C-1.4334152 1.15093925 -2.87188909 2.29558035 -4.3125 3.4375 C-5.11300781 4.07558594 -5.91351563 4.71367188 -6.73828125 5.37109375 C-11.63253831 8.89597318 -17.20068078 8.49566831 -23 8 C-26.6875 6.5 -26.6875 6.5 -29 5 C-29 4.34 -29 3.68 -29 3 C-24.91880031 2.29940894 -20.8347923 1.6168041 -16.75 0.9375 C-15.59113281 0.73833984 -14.43226562 0.53917969 -13.23828125 0.33398438 C-12.12324219 0.15029297 -11.00820313 -0.03339844 -9.859375 -0.22265625 C-8.83295898 -0.39547119 -7.80654297 -0.56828613 -6.74902344 -0.74633789 C-4.14929692 -0.98622385 -2.45153733 -0.82316264 0 0 Z " fill="#1B1B1B" transform="translate(63,85)"/>
<path d="M0 0 C4.16138263 -0.08159574 7.9472484 0.01751476 12 1 C10.75023244 4.65316671 10.32901247 5.78065836 7 8 C4.95703125 8.1953125 4.95703125 8.1953125 2.8125 8.125 C0.9253125 8.063125 0.9253125 8.063125 -1 8 C-0.835 7.236875 -0.67 6.47375 -0.5 5.6875 C0.09145396 2.96403764 0.09145396 2.96403764 0 0 Z " fill="#161616" transform="translate(33,73)"/>
<path d="M0 0 C0.66 0.33 1.32 0.66 2 1 C1.375 2.875 1.375 2.875 0 5 C-3.125 6.25 -3.125 6.25 -6 7 C-4.60667426 3.63279613 -3.0210714 2.0140476 0 0 Z " fill="#202020" transform="translate(155,47)"/>
</svg>
