<?xml version="1.0" standalone="no"?>
<!DOCTYPE svg PUBLIC "-//W3C//DTD SVG 20010904//EN"
 "http://www.w3.org/TR/2001/REC-SVG-20010904/DTD/svg10.dtd">
<svg version="1.0" xmlns="http://www.w3.org/2000/svg"
 width="160.000000pt" height="126.000000pt" viewBox="0 0 160.000000 126.000000"
 preserveAspectRatio="xMidYMid meet">

<g transform="translate(0.000000,126.000000) scale(0.100000,-0.100000)"
fill="#000000" stroke="none">
<path d="M840 1061 c-5 -11 -10 -50 -10 -88 0 -89 -15 -117 -61 -121 -50 -4
-116 23 -257 107 -67 40 -129 71 -139 69 -13 -2 -18 -12 -18 -33 0 -27 9 -35
105 -92 112 -67 250 -163 250 -175 0 -5 -39 -8 -86 -8 -97 0 -124 -10 -124
-45 0 -29 12 -33 117 -37 93 -5 117 -23 107 -83 -10 -63 -37 -124 -109 -244
-36 -62 -65 -120 -63 -129 2 -11 14 -18 33 -20 30 -3 34 2 108 130 42 73 88
147 101 163 l25 30 1 -93 c0 -99 10 -132 38 -132 33 0 42 22 42 104 1 97 12
163 32 183 24 23 123 -1 215 -53 42 -24 82 -44 89 -44 7 0 19 10 25 22 10 19
8 25 -18 47 -17 14 -58 43 -92 63 -33 20 -61 42 -61 47 0 6 44 11 108 13 l107
3 3 29 c2 16 -2 32 -10 37 -7 5 -61 9 -120 9 -114 0 -151 8 -162 36 -9 23 19
115 60 197 44 87 45 117 5 117 -24 0 -34 -8 -57 -47 -47 -83 -96 -153 -105
-153 -5 0 -9 42 -9 93 0 59 -4 97 -12 105 -18 18 -46 14 -58 -7z"/>
</g>
</svg>
