<?xml version="1.0" standalone="no"?><!DOCTYPE svg PUBLIC "-//W3C//DTD SVG 1.1//EN" "http://www.w3.org/Graphics/SVG/1.1/DTD/svg11.dtd"><svg t="1719973541549" class="icon" viewBox="0 0 1024 1024" version="1.1" xmlns="http://www.w3.org/2000/svg" p-id="10099" xmlns:xlink="http://www.w3.org/1999/xlink" width="200" height="200"><path d="M716.1856 451.7888c3.6864-242.4832-191.0784-352.256-204.1856-359.424V92.16l-0.4096 0.2048-0.4096-0.2048v0.4096c-13.1072 7.168-207.872 116.9408-204.1856 359.424-39.7312 26.2144-81.3056 72.9088-74.5472 153.6 6.5536 80.6912 83.1488 134.144 112.4352 131.2768 29.2864-2.8672 20.6848-25.1904 20.6848-25.1904l10.0352-41.7792s43.2128 67.1744 56.9344 67.1744c12.4928-1.024 71.68 0 78.6432 0h0.6144c7.168 0 66.1504-1.024 78.6432 0 13.7216 0 56.9344-67.1744 56.9344-67.1744l10.0352 41.7792s-8.3968 22.3232 20.8896 25.1904c29.2864 2.8672 105.8816-50.5856 112.4352-131.2768 6.5536-80.6912-35.0208-127.3856-74.5472-153.8048z m-204.5952-3.4816c-5.5296-0.2048-78.0288-2.8672-84.5824-89.4976 2.4576-82.3296 79.0528-89.7024 84.5824-90.112 5.7344 0.4096 82.1248 7.7824 84.5824 90.112-6.7584 86.6304-79.0528 89.4976-84.5824 89.4976z m-42.8032 417.792c0 9.8304-7.7824 17.8176-17.2032 17.8176-9.6256 0-17.408-7.9872-17.408-17.8176v-88.064c0-9.8304 7.7824-17.8176 17.408-17.8176s17.2032 7.9872 17.2032 17.8176v88.064z m63.488 47.7184c0 9.8304-7.7824 18.0224-17.6128 18.0224s-17.6128-8.192-17.6128-18.0224v-131.072c0-10.0352 7.7824-18.0224 17.6128-18.0224 9.6256 0 17.6128 8.192 17.6128 18.0224v131.072z m58.5728-68.4032c0 9.8304-7.7824 17.8176-17.408 17.8176s-17.408-7.9872-17.2032-17.8176V782.336c0-9.8304 7.7824-17.8176 17.2032-17.8176 9.6256 0 17.408 7.9872 17.408 17.8176v63.0784z" fill="#c7e9c7" p-id="10100"></path></svg>