<?xml version="1.0" standalone="no"?><!DOCTYPE svg PUBLIC "-//W3C//DTD SVG 1.1//EN" "http://www.w3.org/Graphics/SVG/1.1/DTD/svg11.dtd"><svg t="1719973516876" class="icon" viewBox="0 0 1024 1024" version="1.1" xmlns="http://www.w3.org/2000/svg" p-id="9845" xmlns:xlink="http://www.w3.org/1999/xlink" width="200" height="200"><path d="M650.752 985.6H373.248c-42.496 0-76.8-34.304-76.8-76.8v-265.728c0-0.512-0.512-1.024-1.024-1.024H151.04c-36.864 0-50.176-22.016-54.272-31.232-4.096-9.216-10.752-34.304 14.336-60.928l347.136-372.736c14.336-15.36 33.792-24.064 54.272-24.064s39.936 8.704 54.272 24.064l347.136 372.736c25.088 27.136 18.432 51.712 14.336 60.928-4.096 9.216-17.408 31.232-54.272 31.232h-144.384c-0.512 0-1.024 0.512-1.024 1.024v265.728c-1.024 41.984-35.328 76.8-77.824 76.8z m-482.816-398.336h127.488c42.496 0 55.296 12.8 55.296 55.296v287.232c0 0.512 322.56 0.512 322.56 0v-287.232c0-42.496 12.8-55.296 55.296-55.296h127.488l-344.064-378.88-344.064 378.88z m718.336-488.96l-747.52 0.512c-20.992 0-37.888-9.216-37.888-30.208 0-20.992 16.896-30.208 37.888-30.208h746.496c20.992 0 37.888 9.216 37.888 30.208 0 20.992-15.872 29.696-36.864 29.696z" p-id="9846" fill="#bfbfbf"></path></svg>