<?xml version="1.0" standalone="no"?><!DOCTYPE svg PUBLIC "-//W3C//DTD SVG 1.1//EN" "http://www.w3.org/Graphics/SVG/1.1/DTD/svg11.dtd"><svg class="icon" width="200px" height="200.00px" viewBox="0 0 1024 1024" version="1.1" xmlns="http://www.w3.org/2000/svg"><path d="M96 259.541333C96 184.96 158.890667 128 232.021333 128h560c73.088 0 135.978667 56.96 135.978667 131.541333v403.498667A94.933333 94.933333 0 0 1 981.333333 748.288v52.522667C981.333333 854.016 937.728 896 885.333333 896H138.666667C86.272 896 42.666667 854.016 42.666667 800.853333v-52.565333c0-37.674667 21.930667-69.76 53.333333-85.248V259.541333z m85.333333 393.6h661.333334V259.541333C842.666667 235.946667 821.973333 213.333333 791.978667 213.333333H232.021333c-29.952 0-50.645333 22.613333-50.645333 46.208v393.6z m-42.666666 85.333334a10.24 10.24 0 0 0-10.666667 9.813333v52.522667a10.24 10.24 0 0 0 10.666667 9.856h746.666666a10.24 10.24 0 0 0 10.666667-9.813334v-52.565333a10.24 10.24 0 0 0-10.666667-9.813333H138.666667z" fill="#515151" /></svg>