<?xml version="1.0" standalone="no"?><!DOCTYPE svg PUBLIC "-//W3C//DTD SVG 1.1//EN" "http://www.w3.org/Graphics/SVG/1.1/DTD/svg11.dtd"><svg class="icon" width="200px" height="200.00px" viewBox="0 0 1024 1024" version="1.1" xmlns="http://www.w3.org/2000/svg"><path d="M512 992C248 992 32 776 32 512S248 32 512 32s480 216 480 480-216 480-480 480z m243-534H482c-12 0-24 12-24 24v60c0 12 12 24 24 24h165c12 0 24 12 24 24v12c0 39-33 72-72 72h-225c-12 0-24-12-24-24V422c0-39 33-72 72-72h333c12 0 24-12 24-24v-60c0-12-12-24-24-24H422c-99 0-177 81-177 177V752c0 12 12 24 24 24h351c87 0 159-72 159-159v-135c0-12-12-24-24-24z" fill="#FFFFFF" /></svg>