<?xml version="1.0" standalone="no"?><!DOCTYPE svg PUBLIC "-//W3C//DTD SVG 1.1//EN" "http://www.w3.org/Graphics/SVG/1.1/DTD/svg11.dtd"><svg class="icon" width="200px" height="200.00px" viewBox="0 0 1024 1024" version="1.1" xmlns="http://www.w3.org/2000/svg"><path d="M609.711158 424.421053h217.195789c80.842105 0 119.646316 42.091789 116.250948 126.329263-16.869053 272.815158-158.288842 414.288842-424.421053 424.421052C242.526316 958.248421 94.315789 803.354947 74.105263 510.329263 94.315789 213.908211 242.526316 55.511579 518.736842 35.354947c212.237474 13.473684 331.776 74.105263 358.723369 181.894737-3.341474 57.290105-30.288842 87.578947-80.842106 90.974316-23.552 0-52.170105-11.802947-85.90821-35.408842-60.631579-40.421053-124.604632-60.631579-191.973053-60.631579-151.605895 10.132211-232.394105 109.514105-242.526316 298.145684 10.132211 188.631579 90.920421 287.959579 242.526316 298.09179 141.473684-10.132211 215.578947-79.171368 222.31579-207.171369h-131.395369c-57.236211-3.341474-87.525053-33.684211-90.920421-90.920421 3.395368-53.894737 33.684211-82.512842 90.974316-85.90821z" fill="#FFFFFF" /></svg>