<?xml version="1.0" standalone="no"?><!DOCTYPE svg PUBLIC "-//W3C//DTD SVG 1.1//EN" "http://www.w3.org/Graphics/SVG/1.1/DTD/svg11.dtd"><svg class="icon" width="200px" height="131.96px" viewBox="0 0 1552 1024" version="1.1" xmlns="http://www.w3.org/2000/svg"><path d="M1387.60255 1023.936008H164.523435a164.779403 164.779403 0 0 1-164.523435-164.587427V164.587427a164.779403 164.779403 0 0 1 164.523435-164.587427h1223.079115a164.715411 164.715411 0 0 1 164.459442 164.587427v694.697162a164.715411 164.715411 0 0 1-164.459442 164.651419zM164.523435 99.76353c-35.707537 0-64.887889 29.11636-64.887889 64.823897v694.697162c0 35.835521 29.180352 64.887889 64.887889 64.887889h1223.079115c35.707537 0 64.759905-29.052368 64.759905-64.887889V164.587427c0-35.771529-29.052368-64.823897-64.759905-64.823897H164.523435z" fill="#515151" /><path d="M346.900637 386.447694H236.514436a30.332208 30.332208 0 0 1-30.332209-30.332208V245.793276c0-16.765904 13.566304-30.332208 30.332209-30.332209h110.386201c16.765904 0 30.332208 13.566304 30.332209 30.332209v110.32221a30.3962 30.3962 0 0 1-30.332209 30.332208z m242.145732 0H478.724159a30.332208 30.332208 0 0 1-30.332208-30.332208V245.793276c0-16.765904 13.566304-30.332208 30.332208-30.332209h110.386202c16.701912 0 30.268216 13.566304 30.268217 30.332209v110.32221a30.3962 30.3962 0 0 1-30.332209 30.332208z m242.209724 0h-110.450194a30.332208 30.332208 0 0 1-30.268216-30.332208V245.793276c0-16.765904 13.566304-30.332208 30.268216-30.332209h110.450194c16.63792 0 30.268216 13.566304 30.268216 30.332209v110.32221a30.332208 30.332208 0 0 1-30.268216 30.332208z m242.145732 0h-110.450194a30.332208 30.332208 0 0 1-30.268216-30.332208V245.793276c0-16.765904 13.630296-30.332208 30.268216-30.332209h110.450194c16.701912 0 30.332208 13.566304 30.332208 30.332209v110.32221a30.460192 30.460192 0 0 1-30.332208 30.332208z m242.145732 0h-110.450194a30.332208 30.332208 0 0 1-30.268217-30.332208V245.793276c0-16.765904 13.630296-30.332208 30.268217-30.332209h110.450194c16.701912 0 30.332208 13.566304 30.332208 30.332209v110.32221a30.460192 30.460192 0 0 1-30.332208 30.332208zM346.900637 612.595426H236.514436a30.332208 30.332208 0 0 1-30.332209-30.332209V471.941007c0-16.765904 13.566304-30.268216 30.332209-30.268216h110.386201c16.765904 0 30.332208 13.502312 30.332209 30.268216v110.32221a30.3962 30.3962 0 0 1-30.332209 30.332209z m242.145732 0H478.724159a30.332208 30.332208 0 0 1-30.332208-30.332209V471.941007c0-16.765904 13.566304-30.268216 30.332208-30.268216h110.386202c16.701912 0 30.268216 13.502312 30.268217 30.268216v110.32221a30.3962 30.3962 0 0 1-30.332209 30.332209z m242.209724 0h-110.450194a30.332208 30.332208 0 0 1-30.268216-30.332209V471.941007c0-16.765904 13.566304-30.268216 30.268216-30.268216h110.450194c16.63792 0 30.268216 13.502312 30.268216 30.268216v110.32221a30.332208 30.332208 0 0 1-30.268216 30.332209z m242.145732 0h-110.450194a30.332208 30.332208 0 0 1-30.268216-30.332209V471.941007c0-16.765904 13.630296-30.268216 30.268216-30.268216h110.450194c16.701912 0 30.332208 13.502312 30.332208 30.268216v110.32221a30.460192 30.460192 0 0 1-30.332208 30.332209z m242.145732 0h-110.450194a30.332208 30.332208 0 0 1-30.268217-30.332209V471.941007c0-16.765904 13.630296-30.268216 30.268217-30.268216h110.450194c16.701912 0 30.332208 13.502312 30.332208 30.268216v110.32221a30.460192 30.460192 0 0 1-30.332208 30.332209z m10.046744 198.055243H226.4037a20.221472 20.221472 0 0 1-20.221473-20.093489v-69.111361c0-11.134608 9.086864-20.221472 20.221473-20.221472h1099.190601c11.134608 0 20.221472 9.086864 20.221472 20.221472v69.111361a20.221472 20.221472 0 0 1-20.221472 20.093489z" fill="#515151" /></svg>