<?xml version="1.0" standalone="no"?><!DOCTYPE svg PUBLIC "-//W3C//DTD SVG 1.1//EN" "http://www.w3.org/Graphics/SVG/1.1/DTD/svg11.dtd"><svg class="icon" width="200px" height="200.00px" viewBox="0 0 1024 1024" version="1.1" xmlns="http://www.w3.org/2000/svg"><path d="M716.8 307.2c-30.72 0-61.44 5.12-92.16 20.48-20.48 10.24-46.08 20.48-66.56 25.6V153.6c0-30.72 20.48-51.2 51.2-51.2s51.2 20.48 51.2 51.2 20.48 51.2 51.2 51.2 51.2-20.48 51.2-51.2c0-87.04-66.56-153.6-153.6-153.6s-153.6 66.56-153.6 153.6v199.68c-15.36-5.12-35.84-15.36-61.44-25.6C368.64 312.32 337.92 307.2 307.2 307.2 15.36 307.2 5.12 742.4 0 885.76c0 46.08 20.48 87.04 56.32 112.64 35.84 25.6 87.04 30.72 128 15.36 5.12 0 5.12-5.12 10.24-5.12 0 0 128-87.04 266.24-87.04h102.4c138.24 0 266.24 87.04 266.24 87.04 5.12 0 5.12 5.12 10.24 5.12 15.36 5.12 30.72 10.24 51.2 10.24 25.6 0 56.32-10.24 76.8-25.6 35.84-25.6 56.32-66.56 56.32-112.64-5.12-143.36-15.36-578.56-307.2-578.56m189.44 609.28c-5.12 5.12-15.36 10.24-25.6 5.12-30.72-20.48-168.96-102.4-317.44-102.4H460.8c-153.6 0-286.72 81.92-317.44 102.4-10.24 5.12-20.48 0-25.6-5.12-5.12-5.12-15.36-10.24-15.36-25.6C112.64 573.44 179.2 409.6 307.2 409.6c15.36 0 30.72 5.12 46.08 10.24 112.64 56.32 209.92 56.32 322.56 0 10.24-5.12 25.6-10.24 40.96-10.24 128 0 194.56 163.84 204.8 481.28 0 15.36-10.24 20.48-15.36 25.6M307.2 563.2c-30.72 0-51.2 20.48-51.2 51.2s20.48 51.2 51.2 51.2 51.2-20.48 51.2-51.2-25.6-51.2-51.2-51.2m409.6 0c-30.72 0-51.2 20.48-51.2 51.2s20.48 51.2 51.2 51.2 51.2-20.48 51.2-51.2-20.48-51.2-51.2-51.2" fill="#515151"/></svg>