<?xml version="1.0" standalone="no"?><!DOCTYPE svg PUBLIC "-//W3C//DTD SVG 1.1//EN" "http://www.w3.org/Graphics/SVG/1.1/DTD/svg11.dtd"><svg class="icon" width="200px" height="200.00px" viewBox="0 0 1024 1024" version="1.1" xmlns="http://www.w3.org/2000/svg"><path d="M594.51 67.13H429.69c-141.46 0-256.54 115.07-256.54 256.53v376.92c0 141.46 115.08 256.55 256.54 256.55h164.83c141.46 0 256.54-115.09 256.54-256.55V323.66C851.05 182.2 735.97 67.13 594.51 67.13zM512.1 328.08c-14.59 0-26.47-11.88-26.47-26.46V244.2c0-14.58 11.88-26.46 26.47-26.46s26.47 11.88 26.47 26.46v57.42c0 14.58-11.88 26.46-26.47 26.46z m279.62 372.5c0 108.74-88.47 197.22-197.21 197.22H429.69c-108.74 0-197.21-88.48-197.21-197.22V323.66c0-108.74 88.47-197.2 197.21-197.2h52.75v37.55c-32.67 12.13-56.14 43.36-56.14 80.19v57.42c0 36.83 23.47 68.06 56.14 80.19v99.39c0 16.39 13.28 29.67 29.67 29.67 16.38 0 29.67-13.28 29.67-29.67v-99.39c32.67-12.13 56.13-43.36 56.13-80.19V244.2c0-36.83-23.46-68.06-56.13-80.19v-37.55h52.74c108.74 0 197.21 88.46 197.21 197.2v376.92z" fill="#515151" /></svg>